<?xml version="1.0" encoding="utf-8"?>
<!-- Created with "sPlan" (http://www.abacom-online.de) -->
<svg version="1.1" baseProfile="full"
xmlns="http://www.w3.org/2000/svg"
width="67mm" height="50mm"
viewBox="0 0 670 500">
<title>graph2</title>
<defs>
<style type="text/css">
<![CDATA[
polyline {stroke-linecap:round; stroke-linejoin:round}
polygon {stroke-linecap:round; stroke-linejoin:round}
path {stroke-linecap:round; stroke-linejoin:round}
circle {stroke-linecap:round; stroke-linejoin:round}
]]>
</style>
</defs>
<path fill="rgb(255,255,255)" stroke="rgb(0,0,0)" stroke-width="3" d=" M 345 56 L 345 123 171 123 171 56 345 56 Z" />
<polyline points="420.26 89.51 345.40 89.51" fill="none" stroke="rgb(0,0,0)" stroke-width="3" />
<polyline points="170.73 89.51 95.87 89.51" fill="none" stroke="rgb(0,0,0)" stroke-width="3" />
<path fill="rgb(0,0,0)" stroke="rgb(0,0,0)" stroke-width="0" d=" M 217.08 35.98 L 217.13 36.20 217.24 36.36 217.40 36.48 217.61 36.54 217.88 36.55 218.28 36.53 218.97 36.51 219.96 36.49 221.25 36.48 222.83 36.46 223.77 36.45 224.61 36.44 225.33 36.45 225.96 36.46 226.47 36.48 226.91 36.50 227.28 36.52 227.60 36.53 227.85 36.54 228.05 36.55 228.26 36.53 228.45 36.49 228.60 36.43 228.73 36.34 228.83 36.24 228.91 36.13 228.97 36.01 229.01 35.90 229.04 35.78 229.04 35.66 229.03 35.61 229.02 35.56 229.02 35.52 229.01 35.49 229.00 35.46 228.85 35.24 228.63 35.08 228.34 34.98 227.99 34.93 227.56 34.94 227.06 34.94 226.79 34.94 226.53 34.92 226.29 34.89 226.06 34.84 225.85 34.77 225.66 34.68 225.52 34.55 225.41 34.38 225.34 34.17 225.31 33.93 225.43 33.24 225.65 32.17 225.96 30.72 226.35 28.88 226.85 26.67 227.34 24.48 227.74 22.69 228.04 21.33 228.26 20.37 228.38 19.83 233.20 19.83 234.13 19.92 234.94 20.12 235.62 20.41 236.17 20.81 236.59 21.31 236.91 21.87 237.15 22.44 237.32 23.03 237.41 23.62 237.42 24.23 237.43 24.92 237.40 25.66 237.31 26.46 237.17 27.32 236.98 28.24 236.78 29.16 236.62 30.04 236.49 30.88 236.40 31.67 236.34 32.43 236.46 33.62 236.71 34.65 237.08 35.51 237.58 36.21 238.21 36.74 238.91 37.15 239.61 37.45 240.31 37.67 241.02 37.78 241.72 37.80 242.77 37.60 243.69 37.24 244.48 36.72 245.15 36.03 245.68 35.18 246.10 34.32 246.42 33.57 246.64 32.95 246.77 32.45 246.81 32.07 246.75 31.81 246.67 31.62 246.55 31.49 246.41 31.41 246.23 31.40 246.07 31.43 245.92 31.49 245.80 31.58 245.70 31.70 245.62 31.85 245.55 32.02 245.49 32.18 245.45 32.35 245.40 32.52 245.37 32.68 245.02 33.62 244.67 34.41 244.30 35.07 243.92 35.59 243.52 35.97 243.14 36.25 242.79 36.46 242.48 36.60 242.20 36.67 241.95 36.68 241.59 36.63 241.29 36.51 241.03 36.33 240.84 36.08 240.69 35.76 240.59 35.39 240.51 34.99 240.46 34.56 240.44 34.10 240.44 33.61 240.44 32.90 240.47 32.12 240.52 31.25 240.59 30.31 240.68 29.28 240.77 28.28 240.85 27.39 240.90 26.63 240.94 25.99 240.97 25.47 240.94 24.74 240.84 24.03 240.66 23.34 240.41 22.67 240.08 22.02 239.67 21.40 239.17 20.83 238.57 20.30 237.89 19.82 237.11 19.39 238.97 18.78 240.63 18.05 242.09 17.23 243.35 16.31 244.42 15.28 245.29 14.19 245.96 13.06 246.45 11.91 246.73 10.73 246.83 9.52 246.79 8.55 246.57 7.57 246.17 6.60 245.60 5.62 244.84 4.64 243.85 3.75 242.56 3.04 240.97 2.51 239.08 2.16 236.90 2.00 225.48 2.00 225.13 2.00 224.85 2.09 224.64 2.27 224.51 2.53 224.44 2.88 224.51 3.19 224.64 3.41 224.82 3.56 225.05 3.62 225.34 3.61 225.56 3.61 226.11 3.62 226.59 3.64 227.00 3.68 227.34 3.72 227.61 3.78 227.82 3.87 227.98 3.99 228.09 4.15 228.16 4.34 228.17 4.57 228.15 4.80 228.11 5.06 228.06 5.36 227.99 5.68 227.90 6.03 222.03 32.56 221.98 32.83 221.92 33.11 221.86 33.38 221.78 33.65 221.70 33.92 221.60 34.18 221.47 34.41 221.31 34.61 221.12 34.79 220.90 34.94 220.43 35.06 219.96 35.15 219.47 35.21 218.97 35.22 218.47 35.20 218.00 35.19 217.63 35.27 217.35 35.43 217.17 35.66 217.08 35.98 Z M 228.65 18.71 L 228.73 18.36 228.83 17.87 228.97 17.24 229.14 16.47 229.34 15.56 229.61 14.37 229.97 12.77 230.41 10.75 230.96 8.32 231.59 5.48 231.68 5.06 231.79 4.70 231.91 4.40 232.05 4.16 232.20 3.97 232.40 3.83 232.69 3.73 233.05 3.65 233.50 3.61 234.02 3.61 236.18 3.61 237.10 3.61 237.99 3.68 238.86 3.84 239.72 4.07 240.55 4.38 241.29 4.82 241.88 5.43 242.32 6.22 242.61 7.17 242.74 8.31 242.70 8.83 242.65 9.36 242.56 9.88 242.46 10.41 242.32 10.93 242.13 11.88 241.81 12.85 241.37 13.84 240.80 14.85 240.11 15.88 239.21 16.83 238.02 17.59 236.54 18.15 234.76 18.53 232.70 18.71 Z" />
<polyline points="420.49 219.09 420.49 263.32" fill="none" stroke="rgb(0,0,0)" stroke-width="3" />
<polyline points="420.49 285.44 420.49 329.68" fill="none" stroke="rgb(0,0,0)" stroke-width="3" />
<polyline points="510.86 285.44 329.34 285.44" fill="none" stroke="rgb(0,0,0)" stroke-width="3" />
<polyline points="510.86 263.32 329.34 263.32" fill="none" stroke="rgb(0,0,0)" stroke-width="3" />
<path fill="rgb(0,0,0)" stroke="rgb(0,0,0)" stroke-width="0" d=" M 445.90 232.74 L 446.03 234.74 446.38 236.58 446.96 238.27 447.76 239.81 448.78 241.20 450.00 242.38 451.40 243.32 452.97 243.99 454.73 244.42 456.66 244.59 459.18 244.22 461.44 243.53 463.46 242.53 465.22 241.21 466.73 239.58 467.97 237.88 468.95 236.37 469.64 235.06 470.06 233.94 470.21 233.01 470.19 232.87 470.15 232.76 470.08 232.66 469.99 232.59 469.88 232.54 469.76 232.51 469.64 232.49 469.53 232.50 469.42 232.52 469.31 232.57 469.14 232.75 469.00 232.96 468.90 233.19 468.82 233.44 468.77 233.71 468.08 235.37 467.25 236.89 466.30 238.26 465.22 239.49 464.01 240.57 462.72 241.49 461.39 242.20 460.04 242.72 458.66 243.04 457.25 243.16 456.18 243.11 455.14 242.90 454.12 242.52 453.12 241.98 452.14 241.28 451.26 240.38 450.56 239.25 450.04 237.89 449.70 236.29 449.55 234.46 449.60 233.28 449.73 232.02 449.95 230.69 450.25 229.29 450.63 227.82 451.09 226.34 451.61 224.93 452.19 223.57 452.84 222.28 453.55 221.04 454.37 219.88 455.27 218.79 456.25 217.77 457.33 216.83 458.49 215.96 459.71 215.21 460.97 214.62 462.27 214.19 463.61 213.92 464.98 213.80 466.27 213.94 467.40 214.26 468.39 214.77 469.23 215.45 469.92 216.32 470.47 217.32 470.90 218.37 471.21 219.49 471.38 220.68 471.44 221.93 471.43 222.34 471.41 222.72 471.39 223.05 471.36 223.33 471.33 223.58 471.30 223.78 471.27 223.97 471.25 224.13 471.23 224.28 471.22 224.40 471.24 224.54 471.28 224.67 471.33 224.78 471.40 224.86 471.49 224.93 471.59 224.98 471.68 225.02 471.77 225.04 471.85 225.06 471.93 225.06 472.12 225.04 472.30 224.94 472.46 224.76 472.61 224.49 472.74 224.13 473.48 221.23 474.10 218.81 474.59 216.89 474.95 215.46 475.19 214.52 475.34 213.91 475.46 213.44 475.53 213.13 475.55 212.98 475.54 212.97 475.49 212.76 475.43 212.60 475.34 212.49 475.22 212.43 475.09 212.42 474.99 212.41 474.86 212.45 474.71 212.55 474.52 212.71 474.31 212.93 474.02 213.25 473.59 213.74 473.01 214.39 472.30 215.21 471.44 216.19 470.79 215.26 470.10 214.47 469.39 213.84 468.65 213.34 467.88 212.99 467.13 212.74 466.42 212.55 465.77 212.43 465.17 212.37 464.62 212.37 461.82 212.72 459.15 213.52 456.59 214.77 454.16 216.47 451.85 218.63 449.81 221.11 448.20 223.76 447.01 226.58 446.24 229.57 445.90 232.74 Z" />
<polyline points="88.50 89.51 44.26 89.51" fill="none" stroke="rgb(0,0,0)" stroke-width="3" />
<circle cx="22.09" cy="89.51" r="22.17" fill="rgb(255,255,255)" stroke="rgb(0,0,0)" stroke-width="2" />
<polyline points="88.50 89.51 95.87 89.51" fill="none" stroke="rgb(0,0,0)" stroke-width="3" />
<polyline points="420.26 89.51 530.85 89.51" fill="none" stroke="rgb(0,0,0)" stroke-width="3" />
<polyline points="420.26 439.71 420.26 464.67" fill="none" stroke="rgb(0,0,0)" stroke-width="3" />
<polyline points="88.50 465.52 44.26 465.52" fill="none" stroke="rgb(0,0,0)" stroke-width="3" />
<circle cx="22.09" cy="465.52" r="22.17" fill="rgb(255,255,255)" stroke="rgb(0,0,0)" stroke-width="2" />
<polyline points="530.85 465.52 575.09 465.52" fill="none" stroke="rgb(0,0,0)" stroke-width="3" />
<circle cx="597.26" cy="465.52" r="22.17" fill="rgb(255,255,255)" stroke="rgb(0,0,0)" stroke-width="2" />
<polyline points="530.85 89.51 575.09 89.51" fill="none" stroke="rgb(0,0,0)" stroke-width="3" />
<circle cx="597.26" cy="89.51" r="22.17" fill="rgb(255,255,255)" stroke="rgb(0,0,0)" stroke-width="2" />
<polyline points="88.50 465.52 420.26 465.52 530.85 465.52" fill="none" stroke="rgb(0,0,0)" stroke-width="3" />
<circle cx="420" cy="465" r="4" fill="rgb(0,0,0)" stroke="none" stroke-width="2" />
<path fill="rgb(0,0,0)" stroke="rgb(0,0,0)" stroke-width="0" d=" M 563.77 265.49 L 563.90 267.30 564.24 268.96 564.79 270.47 565.55 271.82 566.52 273.01 567.65 274.02 568.93 274.81 570.34 275.38 571.89 275.73 573.58 275.86 574.76 275.78 575.91 275.60 577.02 275.32 578.09 274.93 579.12 274.44 580.11 273.87 581.04 273.28 581.91 272.64 582.72 271.98 583.48 271.27 584.62 270.05 585.62 268.83 586.46 267.63 587.15 266.44 587.68 265.27 588.12 264.11 588.51 262.98 588.86 261.88 589.16 260.80 589.41 259.76 593.55 243.61 593.64 243.17 593.76 242.72 593.90 242.27 594.06 241.81 594.24 241.35 594.48 240.90 594.78 240.47 595.15 240.08 595.59 239.71 596.11 239.37 596.76 239.10 597.37 238.89 597.94 238.75 598.48 238.67 598.97 238.64 599.40 238.61 599.74 238.50 599.99 238.30 600.15 238.02 600.21 237.66 600.16 237.38 600.04 237.16 599.85 237.01 599.59 236.93 599.27 236.92 599.08 236.93 598.83 236.94 598.52 236.95 598.16 236.96 597.74 236.98 597.25 237.00 596.66 237.01 595.98 237.02 595.20 237.03 594.33 237.04 592.66 236.74 591.29 236.51 590.24 236.35 589.51 236.27 589.09 236.26 588.88 236.26 588.69 236.29 588.51 236.36 588.34 236.47 588.18 236.60 588.12 236.71 588.07 236.82 588.03 236.95 588.01 237.09 588.00 237.24 588.02 237.39 588.05 237.53 588.11 237.65 588.19 237.77 588.29 237.87 588.61 237.95 588.99 238.03 589.45 238.11 589.97 238.19 590.57 238.28 591.14 238.43 591.61 238.73 591.96 239.16 592.20 239.74 592.33 240.45 592.30 240.79 592.26 241.12 592.20 241.45 592.13 241.77 592.04 242.08 587.53 259.84 587.33 260.67 587.11 261.48 586.87 262.29 586.61 263.09 586.33 263.88 585.54 265.61 584.62 267.21 583.58 268.67 582.40 270.00 581.09 271.19 579.70 272.20 578.28 273.00 576.82 273.58 575.33 273.94 573.81 274.08 572.97 274.04 572.15 273.88 571.34 273.59 570.54 273.17 569.75 272.62 569.05 271.91 568.48 271.01 568.07 269.91 567.79 268.62 567.67 267.13 567.69 266.55 567.72 265.99 567.77 265.44 567.84 264.91 567.93 264.39 568.02 263.90 568.11 263.45 568.20 263.05 568.28 262.69 568.36 262.37 573.84 240.73 573.96 240.20 574.13 239.72 574.36 239.28 574.64 238.89 574.98 238.55 575.53 238.32 576.12 238.16 576.75 238.06 577.41 238.02 578.12 238.04 578.78 238.04 579.30 237.95 579.70 237.75 579.97 237.46 580.10 237.06 580.08 236.81 579.96 236.60 579.74 236.44 579.43 236.32 579.02 236.26 578.82 236.27 578.54 236.28 578.18 236.30 577.75 236.32 577.25 236.35 576.62 236.37 575.83 236.40 574.88 236.41 573.76 236.42 572.48 236.43 571.37 236.42 570.37 236.41 569.49 236.40 568.71 236.37 568.05 236.35 567.49 236.32 567.02 236.30 566.64 236.28 566.35 236.27 566.14 236.26 565.90 236.28 565.69 236.32 565.52 236.39 565.37 236.48 565.27 236.60 565.18 236.72 565.12 236.85 565.08 236.98 565.05 237.11 565.05 237.24 565.07 237.44 565.12 237.61 565.20 237.74 565.30 237.85 565.43 237.92 565.57 237.97 565.72 238.01 565.87 238.03 566.03 238.04 566.19 238.04 566.40 238.04 567.06 238.06 567.64 238.09 568.13 238.13 568.53 238.19 568.85 238.27 569.10 238.37 569.29 238.51 569.43 238.69 569.50 238.91 569.52 239.16 569.51 239.30 569.49 239.46 569.47 239.63 569.44 239.81 569.40 240.00 564.40 260.69 564.20 261.49 564.04 262.36 563.91 263.29 563.82 264.29 563.77 265.34 Z" />
<path fill="rgb(0,0,0)" stroke="rgb(0,0,0)" stroke-width="0" d=" M 600.25 272.91 L 600.33 274.09 600.53 275.16 600.87 276.14 601.34 277.02 601.94 277.81 602.66 278.47 603.48 279.00 604.41 279.37 605.44 279.61 606.58 279.70 607.85 279.62 609.06 279.41 610.20 279.09 611.26 278.64 612.26 278.07 613.13 277.41 613.82 276.69 614.33 275.90 614.65 275.04 614.79 274.13 614.77 273.66 614.68 273.21 614.52 272.77 614.30 272.35 614.02 271.94 613.66 271.55 613.21 271.19 612.68 270.87 612.07 270.57 611.38 270.31 612.32 269.96 613.12 269.57 613.77 269.15 614.27 268.70 614.63 268.22 614.88 267.75 615.06 267.30 615.19 266.90 615.25 266.52 615.24 266.18 615.19 265.61 615.03 265.09 614.79 264.62 614.44 264.20 614.00 263.83 613.47 263.52 612.87 263.27 612.19 263.10 611.43 262.99 610.60 262.95 609.14 263.06 607.72 263.38 606.34 263.90 605.00 264.62 603.69 265.55 602.52 266.67 601.59 267.96 600.90 269.43 600.46 271.08 600.25 272.91 Z M 602.85 274.35 L 602.88 273.64 602.95 272.94 603.05 272.24 603.18 271.54 603.35 270.85 605.34 270.85 606.57 270.82 607.45 270.85 608.22 270.85 608.75 270.85 609.27 270.88 609.79 270.96 610.31 271.08 610.82 271.24 611.29 271.47 611.65 271.80 611.93 272.23 612.11 272.76 612.19 273.39 612.18 273.72 612.14 274.08 612.06 274.46 611.96 274.87 611.82 275.30 611.65 275.74 611.45 276.17 611.21 276.57 610.94 276.96 610.63 277.33 610.35 277.58 610.04 277.81 609.70 278.03 609.33 278.23 608.93 278.42 608.50 278.57 608.06 278.70 607.60 278.79 607.12 278.85 606.62 278.87 605.89 278.80 605.24 278.63 604.67 278.36 604.18 278.00 603.77 277.53 603.43 276.99 603.18 276.41 602.99 275.77 602.88 275.08 602.85 274.35 Z M 603.59 270.02 L 604.05 268.75 604.60 267.63 605.22 266.66 605.92 265.85 606.71 265.19 607.53 264.67 608.34 264.27 609.14 263.98 609.94 263.82 610.72 263.78 611.25 263.81 611.74 263.89 612.20 264.02 612.62 264.20 613.01 264.43 613.34 264.70 613.60 265.02 613.80 265.37 613.92 265.76 613.97 266.18 613.72 267.20 613.22 268.05 612.48 268.72 611.50 269.22 610.27 269.54 608.96 269.75 607.72 269.91 606.55 270.00 605.45 270.04 604.42 270.02 Z M 618.43 268.21 L 618.47 268.36 618.54 268.49 618.64 268.59 618.78 268.67 618.96 268.72 619.10 268.71 619.24 268.62 619.37 268.44 619.50 268.19 619.63 267.85 620.02 266.87 620.41 266.04 620.80 265.36 621.19 264.83 621.57 264.45 621.94 264.18 622.27 263.98 622.56 263.84 622.83 263.77 623.05 263.77 623.14 263.77 623.23 263.79 623.32 263.83 623.41 263.88 623.49 263.95 623.57 264.04 623.63 264.17 623.67 264.34 623.70 264.53 623.71 264.77 623.61 265.45 623.42 266.27 623.15 267.22 622.81 268.31 622.38 269.53 621.95 270.79 621.61 271.99 621.34 273.13 621.15 274.20 621.05 275.22 621.10 275.98 621.25 276.69 621.48 277.34 621.79 277.92 622.20 278.44 622.67 278.88 623.21 279.23 623.80 279.48 624.45 279.64 625.16 279.70 626.32 279.57 627.41 279.28 628.43 278.83 629.38 278.21 630.26 277.42 631.03 276.53 631.64 275.58 632.08 274.58 632.37 273.52 632.49 272.41 632.42 271.58 632.25 270.82 631.99 270.15 631.62 269.55 631.16 269.03 630.62 268.60 630.04 268.26 629.40 268.01 628.72 267.87 627.98 267.81 627.62 267.83 627.27 267.87 626.94 267.92 626.61 268.00 626.30 268.11 626.00 268.22 625.72 268.34 625.45 268.47 625.19 268.61 624.95 268.76 625.13 268.27 625.28 267.84 625.42 267.48 625.54 267.17 625.64 266.92 625.71 266.69 625.77 266.46 625.82 266.23 625.84 266.00 625.85 265.76 625.81 265.28 625.71 264.83 625.55 264.43 625.34 264.06 625.06 263.74 624.75 263.46 624.40 263.24 624.02 263.08 623.60 262.99 623.16 262.95 622.19 263.14 621.33 263.49 620.60 263.99 619.98 264.65 619.49 265.46 619.10 266.27 618.79 266.96 618.58 267.51 618.46 267.92 618.43 268.21 Z M 623.18 276.22 L 623.22 275.64 623.29 275.03 623.39 274.39 623.53 273.71 623.69 273.00 623.87 272.32 624.02 271.76 624.15 271.31 624.26 270.98 624.34 270.76 624.54 270.47 624.78 270.19 625.07 269.91 625.40 269.64 625.77 269.37 626.18 269.12 626.59 268.93 627.01 268.78 627.43 268.69 627.87 268.64 628.57 268.77 629.12 269.07 629.52 269.55 629.78 270.22 629.89 271.06 629.86 271.48 629.80 271.98 629.71 272.54 629.57 273.17 629.40 273.88 629.21 274.59 628.99 275.26 628.75 275.87 628.49 276.43 628.20 276.95 627.99 277.24 627.76 277.52 627.50 277.78 627.22 278.03 626.91 278.27 626.59 278.48 626.26 278.64 625.91 278.76 625.56 278.84 625.20 278.87 624.49 278.74 623.93 278.40 623.53 277.87 623.28 277.14 623.18 276.22 Z M 634.32 276.33 L 634.36 276.93 634.48 277.47 634.66 277.96 634.90 278.39 635.21 278.78 635.58 279.11 635.97 279.36 636.40 279.54 636.86 279.66 637.35 279.70 637.71 279.68 638.05 279.62 638.39 279.50 638.71 279.33 639.02 279.11 639.32 278.83 639.61 278.47 639.89 278.04 640.14 277.53 640.39 276.95 640.52 276.61 640.64 276.26 640.75 275.90 640.86 275.53 640.96 275.16 641.05 274.81 641.12 274.51 641.17 274.27 641.20 274.08 641.22 273.95 641.21 273.83 641.18 273.73 641.14 273.65 641.09 273.59 641.02 273.54 640.95 273.50 640.88 273.48 640.80 273.46 640.73 273.45 640.66 273.45 640.51 273.46 640.37 273.53 640.25 273.66 640.13 273.85 640.02 274.10 639.93 274.53 639.80 275.02 639.64 275.57 639.44 276.19 639.21 276.88 638.94 277.53 638.63 278.06 638.27 278.45 637.87 278.73 637.43 278.87 637.30 278.87 637.18 278.84 637.05 278.78 636.93 278.70 636.80 278.59 636.68 278.44 636.59 278.24 636.52 277.99 636.47 277.69 636.45 277.33 636.48 276.85 636.54 276.38 636.61 275.91 636.71 275.45 636.83 274.99 639.32 265.18 639.37 264.99 639.42 264.81 639.46 264.62 639.48 264.44 639.50 264.25 639.42 263.95 639.27 263.71 639.07 263.53 638.81 263.43 638.49 263.39 638.15 263.43 637.85 263.52 637.61 263.66 637.41 263.84 637.26 264.07 637.15 264.31 637.06 264.55 636.98 264.77 636.92 264.99 636.88 265.21 634.60 274.56 634.51 274.91 634.44 275.26 634.38 275.61 634.34 275.97 634.32 276.33 Z M 642.75 277.36 L 642.84 277.88 643.01 278.33 643.27 278.71 643.62 279.01 644.06 279.24 644.54 279.42 645.00 279.55 645.45 279.64 645.89 279.69 646.31 279.70 647.04 279.62 647.70 279.47 648.29 279.25 648.81 278.96 649.27 278.60 649.65 278.23 649.97 277.88 650.24 277.57 650.44 277.30 650.58 277.06 650.78 277.48 651.02 277.87 651.30 278.24 651.63 278.58 652.00 278.90 652.43 279.18 652.90 279.40 653.43 279.56 654.01 279.66 654.65 279.70 655.78 279.53 656.79 279.20 657.70 278.72 658.49 278.09 659.18 277.30 659.74 276.48 660.18 275.75 660.50 275.10 660.69 274.53 660.76 274.05 660.74 273.93 660.71 273.83 660.65 273.74 660.58 273.68 660.49 273.64 660.39 273.61 660.29 273.60 660.19 273.61 660.09 273.64 659.99 273.69 659.87 273.84 659.77 274.01 659.69 274.20 659.61 274.41 659.56 274.64 659.19 275.47 658.77 276.21 658.32 276.85 657.82 277.40 657.28 277.86 656.73 278.23 656.21 278.51 655.69 278.71 655.20 278.83 654.73 278.87 654.31 278.83 653.94 278.74 653.61 278.59 653.32 278.39 653.08 278.13 652.87 277.83 652.71 277.49 652.60 277.12 652.53 276.71 652.50 276.27 652.49 276.03 652.52 275.73 652.57 275.37 652.65 274.95 652.76 274.47 652.93 273.80 653.18 272.81 653.51 271.50 653.93 269.88 654.44 267.93 654.62 267.26 654.86 266.63 655.14 266.05 655.47 265.51 655.84 265.01 656.26 264.58 656.72 264.24 657.22 264.00 657.75 263.84 658.33 263.78 658.67 263.79 658.98 263.82 659.25 263.87 659.49 263.93 659.69 264.00 659.86 264.08 660.00 264.15 660.12 264.21 660.21 264.27 660.27 264.31 659.96 264.41 659.68 264.53 659.44 264.67 659.23 264.83 659.06 265.02 658.93 265.21 658.82 265.42 658.75 265.62 658.70 265.84 658.69 266.06 658.76 266.47 658.92 266.80 659.16 267.05 659.49 267.20 659.90 267.27 660.12 267.26 660.35 267.20 660.57 267.10 660.80 266.97 661.03 266.80 661.24 266.59 661.40 266.33 661.53 266.03 661.61 265.69 661.65 265.30 661.56 264.78 661.39 264.33 661.13 263.96 660.78 263.65 660.35 263.42 659.88 263.24 659.41 263.10 658.96 263.01 658.52 262.95 658.09 262.95 657.36 263.02 656.70 263.17 656.11 263.39 655.59 263.69 655.14 264.05 654.76 264.43 654.44 264.77 654.18 265.08 653.99 265.36 653.86 265.60 653.53 265.00 653.18 264.48 652.79 264.04 652.37 263.70 651.92 263.44 651.47 263.25 651.03 263.10 650.60 263.00 650.19 262.95 649.79 262.95 648.66 263.12 647.64 263.45 646.73 263.93 645.93 264.56 645.24 265.34 644.67 266.15 644.23 266.88 643.91 267.53 643.71 268.08 643.64 268.56 643.68 268.73 643.74 268.86 643.84 268.96 643.96 269.02 644.11 269.03 644.25 269.01 644.37 268.97 644.47 268.90 644.55 268.81 644.61 268.70 644.66 268.57 644.71 268.44 644.75 268.30 644.80 268.15 644.84 268.01 645.14 267.31 645.50 266.67 645.90 266.07 646.36 265.52 646.86 265.02 647.40 264.59 647.95 264.24 648.51 264.00 649.09 263.84 649.68 263.78 650.06 263.81 650.41 263.89 650.74 264.03 651.03 264.22 651.28 264.47 651.50 264.77 651.67 265.10 651.79 265.48 651.87 265.90 651.90 266.36 651.91 266.60 651.88 266.90 651.83 267.27 651.75 267.69 651.64 268.18 651.47 268.85 651.22 269.85 650.89 271.16 650.47 272.79 649.96 274.75 649.77 275.42 649.53 276.04 649.25 276.62 648.93 277.16 648.56 277.65 648.14 278.07 647.69 278.41 647.19 278.65 646.65 278.81 646.07 278.87 645.73 278.85 645.43 278.82 645.15 278.78 644.92 278.72 644.72 278.64 644.55 278.57 644.41 278.50 644.30 278.44 644.22 278.38 644.16 278.33 644.75 278.07 645.20 277.76 645.51 277.41 645.68 277.01 645.71 276.57 645.64 276.17 645.48 275.85 645.24 275.61 644.92 275.45 644.52 275.37 644.20 275.41 643.91 275.49 643.65 275.61 643.42 275.78 643.22 276.00 643.05 276.24 642.92 276.50 642.83 276.77 642.77 277.06 642.75 277.36 Z" />
<path fill="rgb(0,0,0)" stroke="rgb(0,0,0)" stroke-width="0" d=" M 32.95 265.49 L 33.08 267.30 33.42 268.96 33.97 270.47 34.72 271.82 35.69 273.01 36.83 274.02 38.10 274.81 39.52 275.38 41.06 275.73 42.75 275.86 43.93 275.78 45.08 275.60 46.19 275.32 47.26 274.93 48.30 274.44 49.28 273.87 50.21 273.28 51.09 272.64 51.90 271.98 52.65 271.27 53.80 270.05 54.79 268.83 55.63 267.63 56.32 266.44 56.86 265.27 57.29 264.11 57.68 262.98 58.03 261.88 58.33 260.80 58.58 259.76 62.72 243.61 62.81 243.17 62.93 242.72 63.07 242.27 63.23 241.81 63.42 241.35 63.65 240.90 63.95 240.47 64.33 240.08 64.77 239.71 65.28 239.37 65.93 239.10 66.54 238.89 67.12 238.75 67.65 238.67 68.14 238.64 68.57 238.61 68.91 238.50 69.16 238.30 69.32 238.02 69.39 237.66 69.33 237.38 69.21 237.16 69.02 237.01 68.77 236.93 68.44 236.92 68.25 236.93 68.00 236.94 67.69 236.95 67.33 236.96 66.91 236.98 66.42 237.00 65.83 237.01 65.15 237.02 64.38 237.03 63.51 237.04 61.83 236.74 60.47 236.51 59.42 236.35 58.68 236.27 58.27 236.26 58.06 236.26 57.86 236.29 57.68 236.36 57.51 236.47 57.36 236.60 57.29 236.71 57.24 236.82 57.21 236.95 57.18 237.09 57.18 237.24 57.19 237.39 57.22 237.53 57.28 237.65 57.36 237.77 57.47 237.87 57.78 237.95 58.17 238.03 58.62 238.11 59.15 238.19 59.74 238.28 60.32 238.43 60.78 238.73 61.13 239.16 61.37 239.74 61.50 240.45 61.47 240.79 61.43 241.12 61.37 241.45 61.30 241.77 61.22 242.08 56.70 259.84 56.51 260.67 56.29 261.48 56.05 262.29 55.79 263.09 55.51 263.88 54.72 265.61 53.80 267.21 52.75 268.67 51.57 270.00 50.26 271.19 48.87 272.20 47.45 273.00 45.99 273.58 44.50 273.94 42.98 274.08 42.14 274.04 41.32 273.88 40.51 273.59 39.71 273.17 38.93 272.62 38.22 271.91 37.66 271.01 37.24 269.91 36.97 268.62 36.84 267.13 36.86 266.55 36.89 265.99 36.95 265.44 37.02 264.91 37.10 264.39 37.19 263.90 37.28 263.45 37.37 263.05 37.45 262.69 37.53 262.37 43.01 240.73 43.13 240.20 43.31 239.72 43.54 239.28 43.82 238.89 44.16 238.55 44.71 238.32 45.29 238.16 45.92 238.06 46.59 238.02 47.29 238.04 47.95 238.04 48.48 237.95 48.87 237.75 49.14 237.46 49.28 237.06 49.25 236.81 49.13 236.60 48.92 236.44 48.60 236.32 48.20 236.26 47.99 236.27 47.71 236.28 47.36 236.30 46.92 236.32 46.42 236.35 45.79 236.37 45.00 236.40 44.05 236.41 42.93 236.42 41.65 236.43 40.54 236.42 39.54 236.41 38.66 236.40 37.89 236.37 37.23 236.35 36.67 236.32 36.20 236.30 35.82 236.28 35.52 236.27 35.32 236.26 35.07 236.28 34.86 236.32 34.69 236.39 34.55 236.48 34.44 236.60 34.36 236.72 34.29 236.85 34.25 236.98 34.23 237.11 34.22 237.24 34.25 237.44 34.29 237.61 34.37 237.74 34.47 237.85 34.60 237.92 34.74 237.97 34.89 238.01 35.05 238.03 35.20 238.04 35.37 238.04 35.57 238.04 36.23 238.06 36.81 238.09 37.30 238.13 37.71 238.19 38.03 238.27 38.28 238.37 38.47 238.51 38.60 238.69 38.68 238.91 38.69 239.16 38.68 239.30 38.67 239.46 38.64 239.63 38.61 239.81 38.58 240.00 33.57 260.69 33.37 261.49 33.21 262.36 33.09 263.29 33.00 264.29 32.95 265.34 Z" />
<path fill="rgb(0,0,0)" stroke="rgb(0,0,0)" stroke-width="0" d=" M 69.42 272.91 L 69.50 274.09 69.71 275.16 70.04 276.14 70.51 277.02 71.12 277.81 71.84 278.47 72.66 279.00 73.59 279.37 74.62 279.61 75.75 279.70 77.03 279.62 78.23 279.41 79.37 279.09 80.44 278.64 81.43 278.07 82.31 277.41 83.00 276.69 83.50 275.90 83.82 275.04 83.96 274.13 83.94 273.66 83.85 273.21 83.70 272.77 83.47 272.35 83.19 271.94 82.83 271.55 82.38 271.19 81.86 270.87 81.25 270.57 80.55 270.31 81.50 269.96 82.30 269.57 82.95 269.15 83.45 268.70 83.80 268.22 84.05 267.75 84.24 267.30 84.36 266.90 84.42 266.52 84.42 266.18 84.36 265.61 84.21 265.09 83.96 264.62 83.61 264.20 83.17 263.83 82.65 263.52 82.04 263.27 81.36 263.10 80.61 262.99 79.77 262.95 78.32 263.06 76.90 263.38 75.52 263.90 74.17 264.62 72.86 265.55 71.69 266.67 70.77 267.96 70.08 269.43 69.63 271.08 69.42 272.91 Z M 72.02 274.35 L 72.06 273.64 72.12 272.94 72.23 272.24 72.36 271.54 72.52 270.85 74.52 270.85 75.74 270.82 76.62 270.85 77.39 270.85 77.92 270.85 78.44 270.88 78.96 270.96 79.48 271.08 80.00 271.24 80.46 271.47 80.83 271.80 81.10 272.23 81.28 272.76 81.37 273.39 81.35 273.72 81.31 274.08 81.23 274.46 81.13 274.87 80.99 275.30 80.83 275.74 80.62 276.17 80.39 276.57 80.11 276.96 79.80 277.33 79.53 277.58 79.22 277.81 78.88 278.03 78.51 278.23 78.10 278.42 77.68 278.57 77.23 278.70 76.77 278.79 76.29 278.85 75.79 278.87 75.06 278.80 74.41 278.63 73.84 278.36 73.35 278.00 72.94 277.53 72.61 276.99 72.35 276.41 72.16 275.77 72.06 275.08 72.02 274.35 Z M 72.77 270.02 L 73.23 268.75 73.77 267.63 74.39 266.66 75.10 265.85 75.88 265.19 76.70 264.67 77.51 264.27 78.31 263.98 79.11 263.82 79.90 263.78 80.42 263.81 80.91 263.89 81.37 264.02 81.79 264.20 82.18 264.43 82.51 264.70 82.78 265.02 82.97 265.37 83.09 265.76 83.14 266.18 82.89 267.20 82.39 268.05 81.65 268.72 80.67 269.22 79.45 269.54 78.13 269.75 76.89 269.91 75.72 270.00 74.62 270.04 73.60 270.02 Z M 87.15 277.36 L 87.24 277.88 87.41 278.33 87.68 278.71 88.03 279.01 88.46 279.24 88.94 279.42 89.40 279.55 89.85 279.64 90.29 279.69 90.71 279.70 91.44 279.62 92.11 279.47 92.70 279.25 93.22 278.96 93.67 278.60 94.05 278.23 94.38 277.88 94.64 277.57 94.84 277.30 94.98 277.06 95.18 277.48 95.42 277.87 95.70 278.24 96.03 278.58 96.41 278.90 96.83 279.18 97.30 279.40 97.83 279.56 98.41 279.66 99.05 279.70 100.18 279.53 101.19 279.20 102.10 278.72 102.89 278.09 103.58 277.30 104.14 276.48 104.58 275.75 104.90 275.10 105.09 274.53 105.16 274.05 105.14 273.93 105.11 273.83 105.05 273.74 104.98 273.68 104.89 273.64 104.79 273.61 104.69 273.60 104.59 273.61 104.49 273.64 104.40 273.69 104.28 273.84 104.17 274.01 104.09 274.20 104.02 274.41 103.96 274.64 103.59 275.47 103.17 276.21 102.72 276.85 102.22 277.40 101.68 277.86 101.14 278.23 100.61 278.51 100.10 278.71 99.60 278.83 99.13 278.87 98.72 278.83 98.35 278.74 98.02 278.59 97.73 278.39 97.48 278.13 97.27 277.83 97.11 277.49 97.00 277.12 96.93 276.71 96.90 276.27 96.90 276.03 96.92 275.73 96.97 275.37 97.05 274.95 97.16 274.47 97.33 273.80 97.58 272.81 97.91 271.50 98.33 269.88 98.84 267.93 99.02 267.26 99.26 266.63 99.54 266.05 99.87 265.51 100.25 265.01 100.67 264.58 101.12 264.24 101.62 264.00 102.15 263.84 102.73 263.78 103.07 263.79 103.38 263.82 103.65 263.87 103.89 263.93 104.09 264.00 104.26 264.08 104.41 264.15 104.52 264.21 104.61 264.27 104.67 264.31 104.36 264.41 104.08 264.53 103.84 264.67 103.63 264.83 103.46 265.02 103.33 265.21 103.22 265.42 103.15 265.62 103.10 265.84 103.09 266.06 103.16 266.47 103.32 266.80 103.56 267.05 103.89 267.20 104.30 267.27 104.52 267.26 104.75 267.20 104.97 267.10 105.20 266.97 105.43 266.80 105.64 266.59 105.80 266.33 105.93 266.03 106.01 265.69 106.05 265.30 105.97 264.78 105.79 264.33 105.53 263.96 105.19 263.65 104.75 263.42 104.28 263.24 103.82 263.10 103.36 263.01 102.92 262.95 102.49 262.95 101.76 263.02 101.10 263.17 100.51 263.39 99.99 263.69 99.54 264.05 99.16 264.43 98.84 264.77 98.59 265.08 98.39 265.36 98.26 265.60 97.94 265.00 97.58 264.48 97.19 264.04 96.77 263.70 96.33 263.44 95.87 263.25 95.43 263.10 95.00 263.00 94.59 262.95 94.19 262.95 93.06 263.12 92.04 263.45 91.13 263.93 90.34 264.56 89.65 265.34 89.07 266.15 88.63 266.88 88.31 267.53 88.11 268.08 88.04 268.56 88.08 268.73 88.15 268.86 88.24 268.96 88.36 269.02 88.51 269.03 88.65 269.01 88.77 268.97 88.87 268.90 88.95 268.81 89.01 268.70 89.06 268.57 89.11 268.44 89.16 268.30 89.20 268.15 89.24 268.01 89.55 267.31 89.90 266.67 90.30 266.07 90.76 265.52 91.26 265.02 91.80 264.59 92.35 264.24 92.92 264.00 93.49 263.84 94.08 263.78 94.46 263.81 94.82 263.89 95.14 264.03 95.43 264.22 95.68 264.47 95.90 264.77 96.07 265.10 96.19 265.48 96.27 265.90 96.30 266.36 96.31 266.60 96.29 266.90 96.23 267.27 96.15 267.69 96.04 268.18 95.88 268.85 95.63 269.85 95.29 271.16 94.87 272.79 94.37 274.75 94.17 275.42 93.94 276.04 93.65 276.62 93.33 277.16 92.96 277.65 92.55 278.07 92.09 278.41 91.59 278.65 91.06 278.81 90.48 278.87 90.13 278.85 89.83 278.82 89.56 278.78 89.32 278.72 89.12 278.64 88.95 278.57 88.81 278.50 88.70 278.44 88.62 278.38 88.57 278.33 89.15 278.07 89.60 277.76 89.91 277.41 90.08 277.01 90.11 276.57 90.04 276.17 89.88 275.85 89.65 275.61 89.33 275.45 88.92 275.37 88.60 275.41 88.31 275.49 88.05 275.61 87.82 275.78 87.62 276.00 87.45 276.24 87.33 276.50 87.23 276.77 87.17 277.06 87.15 277.36 Z" />
<path fill="rgb(0,0,0)" stroke="rgb(0,0,0)" stroke-width="0" d=" M 204.71 301.45 L 204.84 302.09 205.09 302.59 205.48 302.96 205.99 303.20 206.62 303.30 207.05 303.25 207.44 303.15 207.81 302.98 208.16 302.75 208.47 302.46 208.75 302.14 208.97 301.79 209.13 301.43 209.23 301.05 209.27 300.66 209.24 300.33 209.17 300.03 209.05 299.76 208.90 299.52 208.70 299.31 208.47 299.13 208.22 298.99 207.95 298.89 207.66 298.83 207.36 298.80 206.93 298.85 206.52 298.96 206.15 299.13 205.80 299.37 205.49 299.66 205.22 299.99 205.01 300.33 204.85 300.69 204.76 301.06 204.71 301.45 Z M 198.09 332.12 L 198.14 332.87 198.29 333.56 198.52 334.19 198.85 334.76 199.27 335.27 199.76 335.70 200.31 336.04 200.91 336.29 201.58 336.45 202.31 336.51 203.69 336.20 204.90 335.66 205.96 334.88 206.86 333.85 207.59 332.59 208.19 331.31 208.65 330.23 208.97 329.35 209.16 328.68 209.22 328.21 209.20 327.98 209.11 327.79 208.95 327.64 208.72 327.55 208.43 327.50 208.10 327.60 207.82 327.76 207.61 327.99 207.45 328.29 207.36 328.65 206.84 330.26 206.32 331.61 205.78 332.72 205.23 333.58 204.67 334.19 204.14 334.62 203.65 334.95 203.21 335.16 202.82 335.27 202.48 335.27 202.01 335.16 201.65 334.94 201.40 334.62 201.26 334.20 201.23 333.67 201.21 333.41 201.26 333.03 201.37 332.51 201.55 331.85 201.79 331.06 202.17 329.90 202.75 328.13 203.53 325.77 204.51 322.80 205.69 319.23 205.94 318.54 206.14 318.01 206.30 317.63 206.42 317.41 206.49 317.35 206.56 317.30 206.65 317.12 206.76 316.80 206.89 316.35 207.05 315.76 207.22 315.24 207.37 314.78 207.50 314.37 207.60 314.03 207.69 313.74 207.76 313.50 207.81 313.29 207.84 313.11 207.87 312.95 207.87 312.83 207.78 312.54 207.61 312.32 207.37 312.17 207.04 312.10 206.64 312.10 206.43 312.10 205.90 312.03 205.47 311.98 205.15 311.95 204.93 311.93 204.81 311.93 204.73 311.95 204.62 311.98 204.47 312.01 204.29 312.05 204.08 312.10 203.40 312.18 202.77 312.24 202.19 312.29 201.64 312.32 201.14 312.35 200.69 312.39 200.31 312.46 199.99 312.55 199.75 312.68 199.57 312.84 199.44 313.06 199.39 313.28 199.41 313.49 199.51 313.69 199.68 313.89 199.98 313.97 200.35 314.04 200.77 314.08 201.26 314.10 201.81 314.10 202.34 314.13 202.77 314.22 203.09 314.38 203.31 314.60 203.43 314.90 203.22 315.77 202.84 317.01 202.31 318.61 201.61 320.58 200.76 322.91 199.90 325.29 199.21 327.40 198.67 329.23 198.30 330.79 198.09 332.07 Z M 216.62 333.30 L 216.81 336.39 217.16 339.17 217.66 341.63 218.33 343.78 219.17 345.62 220.03 347.13 220.78 348.30 221.44 349.15 221.99 349.66 222.44 349.83 222.69 349.77 222.86 349.66 222.95 349.48 222.96 349.23 222.89 348.93 222.66 348.63 222.35 348.11 221.96 347.36 221.48 346.39 220.91 345.19 220.35 343.74 219.90 342.03 219.56 340.06 219.32 337.83 219.19 335.32 219.23 333.78 219.32 332.25 219.45 330.73 219.63 329.22 219.87 327.73 220.13 326.26 220.41 324.85 220.70 323.49 221.01 322.19 221.34 320.93 223.19 315.27 225.10 310.38 227.06 306.26 229.07 302.92 231.14 300.35 233.05 298.36 234.57 296.75 235.71 295.54 236.46 294.71 236.83 294.27 236.79 294.10 236.71 293.97 236.60 293.88 236.45 293.83 236.27 293.83 236.02 293.87 235.78 293.95 235.54 294.06 235.31 294.21 235.09 294.39 231.34 297.66 228.04 301.19 225.19 304.98 222.79 309.02 220.84 313.32 219.29 317.66 218.09 321.82 217.25 325.82 216.76 329.65 216.62 333.30 Z M 236.37 313.11 L 236.39 313.32 236.44 313.49 236.52 313.62 236.62 313.72 236.76 313.79 236.91 313.83 237.07 313.86 237.24 313.88 237.42 313.89 237.61 313.89 242.02 313.89 238.25 329.15 238.13 329.54 238.04 329.98 237.96 330.46 237.91 331.00 237.87 331.57 237.93 332.42 238.08 333.19 238.33 333.90 238.68 334.54 239.13 335.12 239.66 335.60 240.26 335.99 240.94 336.27 241.69 336.44 242.51 336.51 244.07 336.21 245.48 335.68 246.74 334.90 247.84 333.89 248.79 332.64 249.58 331.36 250.19 330.26 250.63 329.36 250.90 328.64 250.99 328.10 250.93 327.89 250.82 327.72 250.67 327.60 250.47 327.52 250.24 327.50 250.00 327.51 249.78 327.58 249.57 327.73 249.37 327.94 249.19 328.21 249.07 328.62 248.82 329.19 248.45 329.94 247.96 330.86 247.36 331.95 246.63 333.02 245.80 333.88 244.87 334.55 243.83 335.01 242.68 335.27 242.31 335.23 241.99 335.14 241.72 335.00 241.51 334.81 241.36 334.58 241.25 334.31 241.16 334.02 241.11 333.72 241.08 333.40 241.07 333.06 241.13 332.33 241.23 331.61 241.35 330.89 241.51 330.18 241.71 329.48 245.16 316.09 245.28 315.65 245.39 315.21 245.50 314.77 245.62 314.33 245.73 313.89 246.39 313.90 247.05 313.91 247.70 313.92 248.34 313.93 248.96 313.94 249.85 313.94 250.24 313.94 250.59 313.92 250.90 313.89 251.17 313.84 251.40 313.77 251.58 313.67 251.73 313.53 251.83 313.35 251.89 313.13 251.91 312.88 251.89 312.67 251.84 312.50 251.76 312.37 251.66 312.27 251.53 312.20 251.38 312.16 251.23 312.13 251.07 312.11 250.90 312.10 250.72 312.10 246.18 312.10 246.40 311.29 246.63 310.37 246.90 309.35 247.18 308.21 247.49 306.97 247.79 305.77 248.02 304.78 248.20 304.00 248.32 303.42 248.38 303.05 248.36 302.86 248.32 302.70 248.24 302.57 248.14 302.47 248.02 302.41 247.87 302.37 247.71 302.34 247.54 302.32 247.35 302.32 247.15 302.32 246.13 302.32 245.81 302.33 245.53 302.36 245.31 302.43 245.13 302.52 245.01 302.65 244.91 302.81 244.82 303.03 244.73 303.29 244.64 303.59 244.56 303.95 242.48 312.10 241.81 312.09 241.15 312.08 240.50 312.07 239.86 312.06 239.23 312.05 238.91 312.06 238.59 312.07 238.26 312.08 237.94 312.09 237.61 312.10 237.46 312.10 237.31 312.11 237.15 312.14 236.99 312.19 236.82 312.25 236.67 312.34 236.55 312.47 236.46 312.65 236.40 312.86 236.37 313.11 Z M 250.76 349.38 L 250.80 349.54 250.88 349.66 250.99 349.75 251.14 349.81 251.32 349.83 251.58 349.77 251.81 349.69 252.01 349.60 252.18 349.50 252.33 349.38 256.13 346.11 259.47 342.57 262.35 338.78 264.77 334.73 266.73 330.43 268.29 326.08 269.49 321.90 270.34 317.90 270.83 314.07 270.97 310.41 270.80 307.40 270.46 304.67 269.97 302.22 269.32 300.07 268.51 298.20 267.67 296.64 266.91 295.43 266.24 294.55 265.66 294.02 265.16 293.83 264.98 293.86 264.83 293.92 264.72 294.01 264.64 294.13 264.59 294.27 264.75 294.66 265.01 295.22 265.40 295.98 265.89 296.91 266.50 298.04 267.11 299.42 267.61 301.14 267.99 303.20 268.25 305.60 268.40 308.33 268.30 311.06 268.06 313.77 267.69 316.46 267.18 319.13 266.53 321.77 264.68 327.62 262.76 332.68 260.78 336.94 258.73 340.41 256.61 343.08 254.66 345.16 253.10 346.82 251.92 348.08 251.15 348.94 250.76 349.38 Z" />
<path fill="none" stroke="rgb(0,0,0)" stroke-width="2" d=" M 309.89 321.64 Q 309.90 321.64 309.15 314.08 Q 308.41 306.52 306.20 299.25 Q 304.00 291.97 300.41 285.27 Q 296.83 278.57 292.01 272.70 Q 287.19 266.82 281.32 262.00 Q 275.44 257.18 268.74 253.60 Q 262.04 250.02 254.77 247.81 Q 247.50 245.61 239.94 244.86 Q 232.37 244.12 224.81 244.86 Q 217.25 245.61 209.98 247.81 Q 202.71 250.02 196.01 253.60 Q 189.30 257.18 183.43 262.00 Q 177.56 266.82 172.74 272.70 Q 167.92 278.57 164.33 285.27 Q 160.75 291.97 158.55 299.25 Q 156.34 306.52 155.60 314.08 Q 154.85 321.64 155.60 329.20 Q 156.34 336.76 158.55 344.04 Q 160.75 351.31 164.33 358.01 Q 167.92 364.71 172.74 370.58 Q 177.56 376.46 183.43 381.28 Q 189.30 386.10 196.01 389.68 Q 202.71 393.26 209.98 395.47 Q 217.25 397.67 224.81 398.42 Q 232.37 399.16 239.94 398.42 Q 247.50 397.67 254.77 395.47 Q 262.04 393.26 268.74 389.68 Q 275.44 386.10 281.32 381.28 Q 287.19 376.46 287.19 376.46" />
<circle cx="420" cy="90" r="4" fill="rgb(0,0,0)" stroke="none" stroke-width="2" />
<polyline points="310.28 321.64 310.28 343.87" fill="none" stroke="rgb(0,0,0)" stroke-width="3" />
<polyline points="303.08 316.67 310.28 343.87 317.48 316.67" fill="none" stroke="rgb(0,0,0)" stroke-width="3" />
<polyline points="420.49 219.09 420.26 89.51" fill="none" stroke="rgb(0,0,0)" stroke-width="3" />
<polyline points="420.26 439.71 420.49 329.68" fill="none" stroke="rgb(0,0,0)" stroke-width="3" />
</svg>
